<?xml version="1.0" encoding="UTF-8"?>
<svg id="Layer_1" xmlns="http://www.w3.org/2000/svg" version="1.1" viewBox="0 0 171.04 39.21">
  <!-- Generator: Adobe Illustrator 30.4.0, SVG Export Plug-In . SVG Version: 2.1.3 Build 87)  -->
  <path d="M126.12,22.93c.32-1.07.64-2.13,1.02-3.18.53-1.48,1.11-2.93,1.74-4.37.05-.1.17-.22.06-.33-.08-.09-.21,0-.31.01-1.2.23-2.37.19-3.48-.41-.48-.26-.86-.62-1.1-1.11-.29-.6-.26-1.17.09-1.73.31-.48.74-.81,1.24-1.07.3-.15.77-.06.98.18.08.09.16.2.08.33-.08.13-.2.11-.32.07-.63-.19-.96-.05-1.12.49-.19.63.05,1.09.64,1.28.65.21,1.29.09,1.93-.04.8-.16,1.59-.37,2.39-.55.23-.05.36-.16.46-.37.7-1.5,1.3-3.04,1.88-4.59.15-.39.19-.43.58-.28.97.39,1.77.99,2.3,1.91.29.5.27,1.04.08,1.57-.07.18-.16.34-.24.51-.03.07-.1.13-.03.21.05.06.12.03.19.02,1.15-.13,2.3-.27,3.46-.33,1.67-.09,3.33-.11,5,.04.67.06,1.33.17,2,.28.47.08.9.24,1.28.51.21.15.28.1.37-.12.48-1.2.96-2.4,1.47-3.58.46-1.05.82-2.14,1.18-3.23.05-.17.07-.34.1-.52.03-.21.14-.29.35-.21.84.31,1.59.76,2.23,1.4.6.59.72,1.29.4,2.07-.16.39-.32.78-.5,1.15-1.57,3.18-3.08,6.38-4.49,9.63-1.03,2.37-2.03,4.75-2.8,7.22-.24.79-.47,1.59-.54,2.42-.01.18-.1.41.09.52.19.11.35-.07.5-.18.7-.49,1.27-1.12,1.82-1.78.11-.14.21-.29.34-.41.58-.56.66-1.32.85-2.04.81-3.06,1.84-6.06,2.94-9.03.98-2.65,2.05-5.26,3.14-7.87.38-.91.74-1.85.91-2.83.04-.22.16-.28.36-.19.92.39,1.79.87,2.43,1.67.41.51.41,1.1.2,1.7-.31.89-.76,1.71-1.17,2.56-2.05,4.22-4.02,8.47-5.72,12.85-.53,1.38-1.02,2.78-1.34,4.22-.07.33-.13.67-.13,1.02,0,.14-.06.31.09.39.16.08.3-.04.42-.13.54-.37,1.01-.82,1.45-1.31.47-.53.89-1.09,1.32-1.65.17-.22.25-.46.22-.74-.18-1.47.11-2.88.66-4.24.75-1.85,1.88-3.4,3.64-4.41,1.32-.75,2.7-.94,4.12-.28,1.17.54,1.79,1.75,1.57,3.03-.39,2.24-2.24,4.05-4.55,4.41-.88.14-1.76.16-2.62-.13-.07-.03-.15-.05-.22-.08-.43-.19-.43-.19-.54.26-.23.94-.2,1.86.2,2.75.66,1.47,2.02,2.17,3.58,1.77,1.95-.5,3.56-1.56,4.89-3.07.05-.06.1-.12.15-.18.12-.16.27-.29.48-.16.23.14.12.32.02.49-.64,1.08-1.42,2.04-2.42,2.83-1.3,1.03-2.76,1.58-4.43,1.57-1.79-.01-3.06-.84-3.9-2.39-.26-.48-.25-.48-.57-.02-.87,1.24-1.78,2.44-2.96,3.42-.46.38-.95.66-1.6.59-.58-.07-1.1-.46-1.27-1.02-.16-.51-.24-1.03-.16-1.57.02-.1,0-.21,0-.4-.3.36-.55.66-.81.95-.49.55-1,1.08-1.6,1.53-.58.44-1.2.58-1.86.29-.67-.3-.89-.92-.93-1.6-.04-.56-.04-1.13.08-1.68.03-.13.03-.26.05-.46-.29.23-.51.43-.75.61-1.23.92-2.59,1.45-4.14,1.47-1.96.03-3.31-.9-4.17-2.62-.05-.09-.06-.21-.18-.29-.3.47-.61.92-.97,1.33-.8.9-1.77,1.5-2.96,1.68-1.24.19-2.34-.06-3.09-1.17-.36-.53-.47-1.14-.5-1.76,0-.16,0-.33,0-.5-.14-.01-.15.1-.19.16-.94,1.5-2.34,2.32-4.04,2.62-1.45.26-2.86.12-4.13-.73-.17-.11-.29-.03-.43.04-.78.4-1.62.51-2.48.43-.59-.06-1.11-.29-1.53-.71-.15-.15-.2-.14-.29.05-.14.3-.3.59-.46.88-.09.16-.03.25.13.29,1.13.25,2.26.51,3.4.69,1.11.18,2.23.27,3.36.24.19,0,.22.1.2.25-.2,1.81-1.54,2.92-3.27,2.64-1.48-.24-2.89-.7-4.32-1.12-.31-.09-.62-.28-.92-.24-.32.04-.4.46-.6.7-.81,1.04-1.75,1.9-3.08,2.22-.97.24-1.92.18-2.86-.15-1.91-.66-2.16-3.16-.87-4.42.58-.57,1.3-.86,2.06-1.06.8-.21,1.61-.25,2.43-.12.03,0,.07.01.1.01,1.32.15,1.68-.24,1.97-1.3-.1-.04-.13.05-.19.09-.49.36-1,.68-1.6.85-1.29.36-2.46-.14-3.12-1.35-.16-.3-.29-.61-.4-1-.26.32-.49.6-.72.87-.33.41-.73.74-1.17,1.01-1.58.98-3.24.46-3.99-1.25-.45-1.02-.45-2.09-.33-3.15.18-1.65.7-3.21,1.33-4.73.13-.31.11-.34-.2-.29-.8.13-1.61.13-2.41.09-.18,0-.28.04-.36.21-.51,1.05-1.01,2.11-1.54,3.15-.11.21-.04.43-.12.64-.62,1.71-1.45,3.29-2.77,4.58-.45.44-.97.79-1.59.98-1.02.32-1.86,0-2.54-.75-.75-.83-1.06-1.84-1.12-2.94-.05-.95.07-1.89.33-2.85-.13.04-.15.13-.19.19-.93,1.64-1.85,3.29-2.69,4.98-.38.77-.72,1.56-1.02,2.37-.3.85-1.01,1.33-1.86,1.33-.7,0-1.27-.4-1.53-1.06-.31-.79-.24-1.61-.17-2.42.09-.95.29-1.87.52-2.79.02-.07.06-.14-.04-.24-.38.48-.76.94-1.17,1.39-1.55,1.69-3.4,2.98-5.48,3.92-1.25.56-2.54.94-3.91,1.1-2.97.34-5.28-1.09-6.51-3.6-.82-1.68-.92-3.46-.72-5.27.46-3.99,2.19-7.42,4.81-10.41,1.96-2.25,4.3-3.99,7.14-4.99,1.74-.61,3.53-.83,5.38-.63,1.19.12,2.34.34,3.4.91.73.39,1.32.91,1.57,1.75.08.27.03.5-.13.75-1.13,1.75-2.11,3.58-2.59,5.62-.1.43-.17.87-.27,1.3-.06.28-.19.5-.54.45-1.14-.16-2.11-.6-2.74-1.64-.49-.8-.46-1.62-.18-2.48.32-.96.75-1.86,1.25-2.74.18-.31.16-.32-.19-.38-1.69-.27-3.28.11-4.79.83-4.06,1.95-6.97,5.02-8.7,9.18-.87,2.08-1.11,4.26-.71,6.49.21,1.16.76,2.13,1.89,2.64.84.39,1.74.49,2.65.43,2.79-.18,5.21-1.28,7.36-3.01,1.13-.91,2-2.05,2.84-3.21.61-.84,1.13-1.74,1.47-2.73.12-.36.46-.55.58-.91,1.18-3.47,2.59-6.85,3.97-10.25.36-.88.72-1.78.87-2.74.03-.16.08-.24.26-.16.71.31,1.41.62,2.02,1.12.65.53.91,1.17.71,2.02-.24,1.02-.8,1.89-1.25,2.8-2.03,4.09-4.05,8.19-5.59,12.5-.35.97-.65,1.95-.8,2.97,0,.06-.04.13.03.23.33-.55.65-1.08.97-1.62,1.96-3.29,4.12-6.45,6.43-9.52.33-.43.71-.85.74-1.45,0-.15.13-.12.22-.07.83.52,1.61,1.09,2.08,1.98.28.53.15,1.03-.06,1.53-.43,1.05-1.07,1.98-1.63,2.95-.6,1.05-1.16,2.12-1.35,3.32-.09.56-.1,1.12.03,1.68.1.44.35.61.79.55.81-.12,1.33-.68,1.87-1.23.66-.67,1-1.52,1.33-2.37.6-1.52,1.13-3.06,1.55-4.64.07-.27.04-.44-.19-.63-.96-.81-1.31-1.88-1.19-3.11.05-.47.29-.66.77-.7.46-.04.86.16,1.29.24.48.09.94.24,1.41.37.34.1.37.18.2.5-.16.32-.14.38.21.45,1.05.21,2.11.17,3.17.17.18,0,.27-.13.35-.26.46-.75.88-1.53,1.14-2.38.11-.37.15-.38.48-.18.6.39,1.17.82,1.64,1.37.53.62.58,1.28.31,2.01-.34.94-.84,1.8-1.33,2.66-.9,1.59-1.85,3.17-2.4,4.93-.22.7-.33,1.42-.29,2.15.05.71.41.95,1.09.72.45-.15.81-.45,1.15-.76.38-.34.66-.77,1-1.15.34-.39.27-.88.34-1.32.28-1.84.86-3.58,1.57-5.28.73-1.75,1.68-3.4,2.39-5.16.08-.2.2-.25.39-.15.8.45,1.51,1,2.02,1.77.28.44.32.9.13,1.39-.38.99-.92,1.91-1.42,2.84-.75,1.4-1.52,2.79-2.06,4.3-.31.88-.55,1.77-.51,2.71.04,1.14.67,1.53,1.7,1.04.95-.45,1.54-1.26,2.09-2.12.81-1.27,1.34-2.66,1.79-4.08.5-1.54,1.09-3.03,1.77-4.49.1-.21.17-.43.25-.65.05-.14.13-.21.27-.14.89.47,1.7,1.04,2.1,2.02.25.63.17,1.24-.14,1.82-.44.82-.92,1.61-1.36,2.43-.7,1.31-1.14,2.69-1.13,4.2,0,.89.35,1.21,1.36.99.22-.05.29-.14.17-.37-.27-.55-.44-1.12-.43-1.75.03-.98.5-1.68,1.42-2.02.17-.06.27-.18.35-.32.95-1.55,1.84-3.14,2.74-4.73.45-.8.91-1.59,1.37-2.38.08-.14.13-.28.15-.43.09-.58.27-1.14.63-1.62.24-.33.34-.33.68-.13.61.36,1.21.73,1.69,1.26.44.48.63,1.01.49,1.67-.11.52.03,1.04.13,1.54.35,1.83.82,3.64,1.06,5.5ZM139.51,15.37c.12,0,.24,0,.36,0,1.22.1,2.18.61,2.73,1.75.45.94.27,1.87-.11,2.76-.75,1.74-2.12,2.79-3.94,3.24-1.14.28-2.28.3-3.36-.27-.2-.11-.23.03-.26.16-.24.91-.29,1.81.05,2.73.55,1.53,1.93,2.37,3.52,2.05,1.57-.31,2.89-1.13,4.09-2.14.13-.11.17-.25.2-.41.35-1.52.8-3.01,1.27-4.49.55-1.72,1.13-3.44,1.77-5.13.1-.27.1-.39-.23-.47-1.26-.3-2.55-.38-3.83-.54-.99-.12-1.98-.1-2.97-.16-1.8-.1-3.6.02-5.39.12-.22.01-.35.11-.46.31-1.09,2.1-2.19,4.19-3.14,6.35-.65,1.46-1.28,2.94-1.64,4.5-.1.42-.18.84-.13,1.28.05.48.28.69.75.7.5.01.96-.14,1.39-.37.81-.43,1.46-1.05,2.05-1.75.39-.46.68-.92.52-1.55-.04-.14.01-.31.02-.46.17-2.62,1.17-4.88,3.11-6.67,1.02-.94,2.2-1.55,3.63-1.53ZM118.06,22.19c.62-.04,1.19-.13,1.78-.13.52,0,.67.16.54.66-.33,1.22-.78,2.39-1.5,3.44-.24.35-.25.38.18.47,1.14.25,2.19.01,3.13-.68.57-.42.93-.99,1.07-1.69.12-.6-.02-1.16-.14-1.73-.26-1.19-.69-2.32-1.05-3.48-.16-.52-.32-1.04-.5-1.62-1.19,1.62-2.34,3.2-3.49,4.77ZM108.6,30.86c-.8-.23-1.59-.43-2.4-.52-.74-.09-1.46.04-2.07.51-.77.6-.63,1.76.25,2.14.65.28,1.31.28,1.95-.04.74-.38,1.27-.98,1.71-1.66.14-.21.28-.4.56-.42ZM156.31,22.18c.73-.03,1.36-.2,1.92-.55.87-.54,1.6-1.21,1.92-2.23.17-.53-.08-.85-.63-.84-.44,0-.84.17-1.21.41-1.11.71-1.75,1.81-2.35,2.93-.08.15-.04.23.12.25.1.01.2.02.23.02ZM135.83,21.87c1.53,0,3.31-1.29,3.74-2.71.18-.61-.14-.97-.77-.87-.49.08-.92.29-1.32.58-.89.65-1.44,1.56-1.96,2.5-.27.49-.26.5.31.5ZM119.46,22.88c-.65.11-1.25.26-1.82.53-.9.44-1.06,1.13-.47,1.94.22.3.29.32.56.04.58-.59,1.07-1.25,1.48-1.98.09-.16.22-.3.24-.53Z"/>
  <path d="M25.47,26.74c1-1.59,1.99-3.19,2.99-4.78,1.29-2.03,2.71-3.97,4.14-5.9.32-.43.67-.85.81-1.39.07-.29.24-.31.46-.17.65.44,1.28.92,1.73,1.58.49.71.35,1.4.02,2.12-.54,1.15-1.26,2.19-1.86,3.3-.62,1.16-1.1,2.36-1.04,3.72.05,1.09.61,1.39,1.56.82.81-.48,1.39-1.18,1.86-1.96.3-.5.17-1.09.24-1.64.32-2.48,1.36-4.59,3.26-6.24,1.12-.97,2.41-1.51,3.94-1.35,2.06.21,3.26,1.97,2.68,3.96-.85,2.9-4.26,4.67-7.11,3.66-.43-.15-.6-.1-.66.35-.09.64-.14,1.28.02,1.91.48,1.94,2.13,2.87,4.05,2.28,1.22-.37,2.31-1,3.31-1.8.22-.18.38-.37.39-.67.02-.85.45-1.52.93-2.19,1.51-2.13,3.31-3.97,5.43-5.55-.38.09-.76.19-1.14.28-.38.09-.77.17-1.15.25-.67.14-1.35.23-2.03.05-.69-.19-1.03-.57-1.07-1.27-.03-.47,0-.95,0-1.43,0-.45.2-.5.6-.41,2.08.51,4.22.66,6.35.67,1.45,0,2.91-.16,4.12-1.12.28-.22.4-.09.48.19.07.24.16.47.23.71.52,1.74.3,2.22-1.3,3.09-2.27,1.24-4.64,2.31-6.73,3.86-.64.47-1.21,1-1.73,1.6-.38.43-.6.94-.69,1.51-.13.76.23,1.47.93,1.79.67.31,1.38.4,2.12.26.34-.06.5-.22.54-.56.37-2.97,3.14-4.23,5.53-4.25.58,0,1.14.13,1.43.7.28.55.06,1.05-.25,1.51-.73,1.08-1.82,1.74-2.91,2.38-.73.43-1.49.82-2.29,1.11-.53.19-.6.48-.34.95.29.52.67.94,1.09,1.35.11.11.3.23.19.41-.14.22-.34.08-.49-.03-.64-.45-1.16-1.01-1.48-1.72-.16-.37-.36-.42-.72-.31-1.26.37-2.51.53-3.72-.23-.62-.39-1.09-.91-1.38-1.56-.25-.53-.43-.44-.78-.1-1.18,1.14-2.55,1.89-4.2,2.11-2.29.31-4.02-.64-4.95-2.74-.06-.13-.13-.25-.22-.43-.58.69-1.06,1.37-1.74,1.9-1.56,1.23-3.26.9-4.23-.83-.69-1.22-.67-2.54-.55-3.87.02-.2.13-.39-.02-.71-.56,1.01-1.1,1.95-1.6,2.91-.7,1.34-1.42,2.67-1.91,4.11-.31.89-1.18,1.44-2.02,1.35-.81-.09-1.4-.7-1.57-1.68-.23-1.28.09-2.51.31-3.75.07-.36.16-.72.21-1.1-1,1.31-2.14,2.48-3.46,3.44-2.1,1.54-4.4,2.64-7.02,2.96-3.4.41-6.19-1.55-7.07-4.98-.56-2.19-.32-4.37.32-6.5,1.48-4.92,4.36-8.81,8.79-11.46,3-1.8,6.25-2.37,9.69-1.52,1.02.25,1.97.65,2.68,1.48.62.73.66,1.19.15,2-1.21,1.93-2.17,3.95-2.55,6.22-.13.75-.32.84-1.08.67-1.37-.31-2.3-1.09-2.64-2.49-.12-.49,0-.95.14-1.4.26-.9.65-1.74,1.11-2.56.29-.53.25-.61-.36-.66-1.09-.1-2.18.01-3.18.42-5.44,2.18-9,6.05-10.44,11.77-.32,1.29-.31,2.63-.09,3.95.34,2.04,1.56,3.12,3.64,3.21,2.39.11,4.54-.63,6.54-1.84,2.6-1.57,4.32-3.9,5.7-6.57,1.83-3.53,2.89-7.38,4.54-10.98.44-.96.76-1.97,1.02-3,.06-.24.1-.49.43-.35.85.37,1.73.71,2.33,1.48.34.43.45.91.35,1.46-.12.64-.39,1.22-.69,1.79-1.88,3.69-3.7,7.41-5.27,11.25-.69,1.68-1.31,3.39-1.6,5.2ZM39.59,21.28c.1-.02.33-.04.55-.1,1.33-.33,2.27-1.15,2.88-2.36.13-.26.2-.57,0-.82-.21-.27-.5-.21-.8-.15-.46.09-.85.31-1.21.6-.81.65-1.35,1.5-1.84,2.39-.23.41-.05.46.43.44ZM53.15,26.36c1.21-.48,2.31-.94,3.26-1.68.18-.14.33-.31.47-.48.1-.13.19-.28.1-.46-.1-.18-.28-.15-.44-.14-1.41.03-2.96,1.25-3.4,2.76Z"/>
</svg>